Patient4_TMGait_0pt5_01_left_17_GRF.mot
version=1
nRows=71
nColumns=19
inDegrees=no
endheader
time	F1x	F1y	F1z	M1x	M1y	M1z	F2x	F2y	F2z	M2x	M2y	M2z	EC1x	EC1y	EC1z	EC2x	EC2y	EC2z
22.69	-13.4438	-3.9073	4.4303	-0.46509	-7.1492	-5.5446	-33.9859	736.1835	-69.4191	281.0514	74.7391	683.5941	-0.0592	0.0182	-0.0073	-0.0462	0.0165	0.9585
22.7034	-9.1058	-2.0245	2.8969	-0.5128	-4.806	-3.047	-33.3121	733.3062	-65.0387	278.9037	70.9442	677.7365	-0.0592	0.0182	-0.0073	-0.0462	0.0165	0.9585
22.7169	-5.4232	-0.39259	1.6499	-0.57861	-2.8408	-0.9189	-32.1966	731.4229	-61.0054	277.3145	67.189	672.4275	-0.0592	0.0182	-0.0073	-0.0462	0.0165	0.9585
22.7303	-2.6083	0.8871	0.73667	-0.65317	-1.3602	0.72277	-30.6602	731.2265	-57.6061	276.5999	63.7168	668.3826	-0.0592	0.0182	-0.0073	-0.0462	0.0165	0.9585
22.7437	-0.66327	1.811	0.13777	-0.72865	-0.35963	1.8956	-28.7637	733.0788	-54.979	276.8978	60.6789	665.9628	-0.0592	0.0182	-0.0073	-0.0462	0.0165	0.9585
22.7571	0.5369	2.4139	-0.2077	-0.7966	0.23978	2.6545	-26.5676	736.9466	-53.1557	278.1698	58.1418	665.1361	-0.0592	0.0182	-0.0073	-0.0462	0.0165	0.9585
22.7706	1.1569	2.7427	-0.36172	-0.84606	0.53114	3.0686	-24.0949	742.4502	-52.0775	280.2376	56.081	665.534	-0.0592	0.0182	-0.0073	-0.0462	0.0165	0.9585
22.784	1.3599	2.8408	-0.39279	-0.86473	0.61359	3.2067	-21.3585	748.9875	-51.6226	282.8401	54.4118	666.5865	-0.0592	0.0182	-0.0073	-0.0462	0.0165	0.9585
22.7974	1.2978	2.7116	-0.34515	-0.83222	0.56135	3.0823	-18.3815	755.8436	-51.6253	285.6798	53.0118	667.6412	-0.0592	0.0182	-0.0073	-0.0462	0.0165	0.9585
22.8109	1.0829	2.341	-0.26057	-0.72661	0.43708	2.6982	-15.2277	762.3119	-51.9123	288.4671	51.7656	668.0926	-0.0592	0.0182	-0.0073	-0.0462	0.0165	0.9585
22.8243	0.80753	1.6779	-0.16086	-0.51895	0.28027	2.0105	-12.0087	767.782	-52.3208	290.9508	50.582	667.4595	-0.0592	0.0182	-0.0073	-0.0462	0.0165	0.9585
22.8377	0.53232	0.66168	-0.064317	-0.17803	0.12127	0.97174	-8.8603	771.8244	-52.7067	292.9502	49.3909	665.4468	-0.0592	0.0182	-0.0073	-0.0462	0.0165	0.9585
22.8511	0.3205	-0.75475	0.015134	0.31757	-0.00442	-0.46098	-5.9004	774.2687	-52.9471	294.3805	48.131	662.0005	-0.0592	0.0182	-0.0073	-0.0462	0.0165	0.9585
22.8646	0.23388	-2.5717	0.066734	0.97062	-0.063515	-2.2819	-3.1938	775.181	-52.9738	295.242	46.7717	657.2728	-0.0592	0.0182	-0.0073	-0.0462	0.0165	0.9585
22.878	0.32403	-4.6929	0.068769	1.7458	-0.013205	-4.3938	-0.74148	774.8076	-52.7842	295.5954	45.3127	651.5684	-0.0592	0.0182	-0.0073	-0.0462	0.0165	0.9585
22.8914	0.65719	-6.8538	0.0057984	2.5471	0.18627	-6.5442	1.5299	773.4896	-52.4471	295.5306	43.7823	645.2635	-0.0592	0.0182	-0.0073	-0.0462	0.0165	0.9585
22.9049	1.2917	-8.5391	-0.15141	3.1833	0.58606	-8.2251	3.7453	771.5178	-52.074	295.1147	42.22	638.6753	-0.0592	0.0182	-0.0073	-0.0462	0.0165	0.9585
22.9183	2.2909	-8.9296	-0.41929	3.3423	1.2274	-8.6233	6.0417	768.9793	-51.7791	294.3457	40.6658	631.9376	-0.0592	0.0182	-0.0073	-0.0462	0.0165	0.9585
22.9317	3.6866	-6.8213	-0.81543	2.5667	2.1375	-6.5372	8.517	765.7037	-51.6236	293.1369	39.1346	624.9579	-0.0592	0.0182	-0.0073	-0.0462	0.0165	0.9585
22.9451	5.4381	-0.61882	-1.3387	0.25704	3.2928	-0.37508	11.2037	761.2592	-51.6083	291.3187	37.621	617.4066	-0.0592	0.0182	-0.0073	-0.0462	0.0165	0.9585
22.9586	7.3967	11.5816	-1.9602	-4.2984	4.5983	11.7543	14.0488	755.0352	-51.6706	288.6676	36.1032	608.8106	-0.0592	0.0182	-0.0073	-0.0462	0.0165	0.9585
22.972	9.2196	31.762	-2.5995	-11.8368	5.8374	31.8244	16.9207	746.2835	-51.7141	284.9208	34.5647	598.5914	-0.0592	0.0182	-0.0073	-0.0462	0.0165	0.9585
22.9854	10.3192	61.5045	-3.0992	-22.9459	6.6262	61.4049	19.6292	734.1343	-51.6141	279.7807	32.9935	586.074	-0.0592	0.0182	-0.0073	-0.0462	0.0165	0.9585
22.9989	9.8053	101.2717	-3.2077	-37.7932	6.3864	100.9579	21.964	717.6283	-51.2123	272.9251	31.363	570.5139	-0.0592	0.0182	-0.0073	-0.0462	0.0165	0.9585
23.0123	6.736	149.5666	-2.596	-55.8087	4.4543	148.9757	23.7591	695.7949	-50.323	264.0383	29.6125	551.1473	-0.0592	0.0182	-0.0073	-0.0462	0.0165	0.9585
23.0257	1.024	202.4187	-0.84689	-75.4829	0.40087	201.4439	24.898	667.8145	-48.7492	252.8677	27.6552	527.3199	-0.0592	0.0182	-0.0073	-0.0462	0.0165	0.9585
23.0391	-5.9575	254.2659	2.6723	-94.6968	-5.8513	252.6824	25.3538	633.2347	-46.3678	239.2963	25.4338	498.6472	-0.0592	0.0182	-0.0073	-0.0462	0.0165	0.9585
23.0526	-12.7466	301.202	7.7625	-111.9923	-13.4975	298.5477	25.1876	592.2097	-43.1997	223.415	22.9606	465.2133	-0.0592	0.0182	-0.0073	-0.0462	0.0165	0.9585
23.066	-18.3943	342.858	13.7589	-127.2512	-21.5038	338.5022	24.4995	545.4841	-39.4469	205.5072	20.349	427.5796	-0.0592	0.0182	-0.0073	-0.0462	0.0165	0.9585
23.0794	-22.3772	380.5844	19.9366	-141.026	-28.9554	373.8442	23.4064	494.1321	-35.3772	185.9647	17.7416	386.5609	-0.0592	0.0182	-0.0073	-0.0462	0.0165	0.9585
23.0929	-24.5383	415.9026	25.6528	-153.937	-35.1721	406.087	21.9511	439.4324	-31.1857	165.251	15.2458	343.146	-0.0592	0.0182	-0.0073	-0.0462	0.0165	0.9585
23.1063	-24.9471	449.796	30.4229	-166.3972	-39.7314	436.2092	20.1121	382.8272	-26.9754	143.8897	12.9188	298.4583	-0.0592	0.0182	-0.0073	-0.0462	0.0165	0.9585
23.1197	-23.8292	482.7634	34.0299	-178.6181	-42.5394	464.7521	17.837	325.9002	-22.8451	122.4563	10.8244	253.7277	-0.0592	0.0182	-0.0073	-0.0462	0.0165	0.9585
23.1331	-21.5093	515.1606	36.459	-190.7378	-43.7387	492.1526	15.0906	270.3395	-18.9094	101.5652	9.0309	210.2612	-0.0592	0.0182	-0.0073	-0.0462	0.0165	0.9585
23.1466	-18.3793	547.3932	38.0211	-202.8819	-43.792	518.9315	11.9376	217.8303	-15.3189	81.8315	7.6065	169.3377	-0.0592	0.0182	-0.0073	-0.0462	0.0165	0.9585
23.16	-14.8336	579.7967	39.056	-215.1413	-43.1728	545.5005	8.5433	169.9325	-12.2106	63.8259	6.5794	132.1228	-0.0592	0.0182	-0.0073	-0.0462	0.0165	0.9585
23.1734	-11.318	612.3719	40.0249	-227.4727	-42.475	571.9803	5.1739	127.9215	-9.6742	48.02	5.9189	99.5515	-0.0592	0.0182	-0.0073	-0.0462	0.0165	0.9585
23.1869	-8.2039	644.7351	41.2156	-239.6987	-42.0989	598.1062	2.1436	92.5808	-7.683	34.7104	5.4972	72.1794	-0.0592	0.0182	-0.0073	-0.0462	0.0165	0.9585
23.2003	-5.7066	676.2697	42.8097	-251.561	-42.2954	623.3904	-0.30576	64.0473	-6.1294	23.9582	5.1594	50.0788	-0.0592	0.0182	-0.0073	-0.0462	0.0165	0.9585
23.2137	-3.8731	706.1744	44.6937	-262.7536	-42.9787	647.138	-2.061	41.91	-4.8574	15.6206	4.7596	32.9106	-0.0592	0.0182	-0.0073	-0.0462	0.0165	0.9585
23.2271	-2.6475	733.4638	46.7357	-272.9061	-44.0118	668.4963	-3.1101	25.4303	-3.7583	9.4254	4.225	20.1099	-0.0592	0.0182	-0.0073	-0.0462	0.0165	0.9585
23.2406	-1.9537	757.0838	48.7352	-281.6243	-45.1793	686.5465	-3.4899	13.7212	-2.7553	5.0384	3.5204	11.005	-0.0592	0.0182	-0.0073	-0.0462	0.0165	0.9585
23.254	-1.6944	776.1509	50.6443	-288.5745	-46.4038	700.5318	-3.3029	5.8924	-1.8408	2.1194	2.6848	4.9196	-0.0592	0.0182	-0.0073	-0.0462	0.0165	0.9585
23.2674	-1.7648	790.1969	52.3863	-293.5815	-47.5733	710.0568	-2.7435	1.1397	-1.0486	0.3576	1.8194	1.2354	-0.0592	0.0182	-0.0073	-0.0462	0.0165	0.9585
23.2809	-2.0317	799.2731	53.9735	-296.6637	-48.6519	715.1926	-2.0532	-1.2998	-0.44176	-0.53956	1.0638	-0.63799	-0.0592	0.0182	-0.0073	-0.0462	0.0165	0.9585
23.2943	-2.3328	803.934	55.3324	-298.0349	-49.5135	716.4438	-1.3865	-2.1611	-0.019637	-0.84676	0.47029	-1.2763	-0.0592	0.0182	-0.0073	-0.0462	0.0165	0.9585
23.3077	-2.5099	805.0988	56.4611	-298.0424	-50.1025	714.6368	-0.8191	-2.0671	0.23594	-0.79613	0.052338	-1.1705	-0.0592	0.0182	-0.0073	-0.0462	0.0165	0.9585
23.3211	-2.408	803.7689	57.345	-297.065	-50.3542	710.6426	-0.38695	-1.4781	0.36626	-0.5599	-0.2106	-0.68481	-0.0592	0.0182	-0.0073	-0.0462	0.0165	0.9585
23.3346	-1.9421	800.7808	58.0814	-295.4145	-50.3324	705.1974	-0.086334	-0.71722	0.40439	-0.25816	-0.34756	-0.083756	-0.0592	0.0182	-0.0073	-0.0462	0.0165	0.9585
23.348	-1.1122	796.7582	58.7237	-293.3228	-50.0951	698.853	0.093676	0.027606	0.38916	0.038446	-0.39988	0.48416	-0.0592	0.0182	-0.0073	-0.0462	0.0165	0.9585
23.3614	-0.0099682	792.1631	59.3267	-290.9603	-49.731	692.0324	0.18186	0.65482	0.34245	0.29144	-0.39694	0.94055	-0.0592	0.0182	-0.0073	-0.0462	0.0165	0.9585
23.3749	1.2462	787.3633	59.8553	-288.4673	-49.2539	685.0801	0.20606	1.1342	0.28633	0.48888	-0.36502	1.2662	-0.0592	0.0182	-0.0073	-0.0462	0.0165	0.9585
23.3883	2.5345	782.6328	60.2801	-285.9546	-48.6875	678.2586	0.18493	1.4793	0.22907	0.63475	-0.31392	1.4843	-0.0592	0.0182	-0.0073	-0.0462	0.0165	0.9585
23.4017	3.7621	778.1852	60.5351	-283.5155	-48.0111	671.7443	0.145	1.7176	0.18274	0.7385	-0.25857	1.6259	-0.0592	0.0182	-0.0073	-0.0462	0.0165	0.9585
23.4151	4.8682	774.1725	60.5715	-281.2244	-47.2049	665.6379	0.095893	1.8831	0.14593	0.8105	-0.19929	1.7313	-0.0592	0.0182	-0.0073	-0.0462	0.0165	0.9585
23.4286	5.8362	770.6944	60.3557	-279.1348	-46.2441	659.9826	0.050444	2	0.12264	0.8595	-0.1444	1.8262	-0.0592	0.0182	-0.0073	-0.0462	0.0165	0.9585
23.442	6.72	767.7906	59.886	-277.2734	-45.1084	654.7584	0.0088237	2.0843	0.10691	0.89246	-0.092387	1.9257	-0.0592	0.0182	-0.0073	-0.0462	0.0165	0.9585
23.4554	7.6218	765.4316	59.2078	-275.6341	-43.8023	649.8859	-0.032918	2.1359	0.097495	0.91086	-0.044436	2.0159	-0.0592	0.0182	-0.0073	-0.0462	0.0165	0.9585
23.4689	8.6621	763.5339	58.397	-274.1815	-42.3503	645.2535	-0.076445	2.1314	0.08939	0.90679	0.001924	2.0585	-0.0592	0.0182	-0.0073	-0.0462	0.0165	0.9585
23.4823	9.9475	761.9769	57.5632	-272.8589	-40.8087	640.738	-0.13497	2.0313	0.084932	0.86478	0.045359	2.0052	-0.0592	0.0182	-0.0073	-0.0462	0.0165	0.9585
23.4957	11.555	760.6391	56.7997	-271.6067	-39.2301	636.2414	-0.20809	1.7669	0.08199	0.75764	0.086892	1.7764	-0.0592	0.0182	-0.0073	-0.0462	0.0165	0.9585
23.5091	13.519	759.4061	56.1951	-270.3714	-37.676	631.6844	-0.29182	1.2542	0.082049	0.55067	0.12543	1.2873	-0.0592	0.0182	-0.0073	-0.0462	0.0165	0.9585
23.5226	15.8325	758.1708	55.7993	-269.1102	-36.1892	626.9992	-0.37703	0.40854	0.085769	0.20763	0.15783	0.45624	-0.0592	0.0182	-0.0073	-0.0462	0.0165	0.9585
23.536	18.4639	756.8388	55.6329	-267.7938	-34.8001	622.1373	-0.43771	-0.83913	0.093041	-0.29987	0.17756	-0.7892	-0.0592	0.0182	-0.0073	-0.0462	0.0165	0.9585
23.5494	21.3907	755.3556	55.6838	-266.4156	-33.5118	617.0774	-0.43815	-2.5098	0.10437	-0.97906	0.17302	-2.4685	-0.0592	0.0182	-0.0073	-0.0462	0.0165	0.9585
23.5629	24.5719	753.6762	55.9207	-264.9745	-32.3145	611.805	-0.32053	-4.5418	0.12204	-1.802	0.12111	-4.5219	-0.0592	0.0182	-0.0073	-0.0462	0.0165	0.9585
23.5763	27.9636	751.7167	56.3038	-263.4539	-31.1867	606.2776	-0.023341	-6.7067	0.15307	-2.6763	-0.013137	-6.7138	-0.0592	0.0182	-0.0073	-0.0462	0.0165	0.9585
23.5897	31.5002	749.3979	56.7871	-261.8338	-30.1101	600.4599	0.53462	-8.539	0.20711	-3.4162	-0.27696	-8.5825	-0.0592	0.0182	-0.0073	-0.0462	0.0165	0.9585
23.6031	35.0917	746.6788	57.3271	-260.1081	-29.0769	594.3518	1.4346	-9.2621	0.29457	-3.7113	-0.7176	-9.3551	-0.0592	0.0182	-0.0073	-0.0462	0.0165	0.9585
23.6166	38.6567	743.5686	57.8799	-258.2915	-28.0769	587.9849	2.7342	-7.7185	0.41998	-3.0986	-1.3587	-7.8552	-0.0592	0.0182	-0.0073	-0.0462	0.0165	0.9585
23.63	42.1057	740.0864	58.4022	-256.4029	-27.0996	581.3977	4.4504	-2.3514	0.58705	-0.95599	-2.1952	-2.5083	-0.0592	0.0182	-0.0073	-0.0462	0.0165	0.9585
